<svg xmlns="http://www.w3.org/2000/svg" xmlns:xlink="http://www.w3.org/1999/xlink" width="2000" zoomAndPan="magnify" viewBox="0 0 1500 1499.999933" height="2000" preserveAspectRatio="xMidYMid meet" version="1.0"><defs><clipPath id="8e5f87a2c8"><path d="M 320.691406 320.691406 L 1179.441406 320.691406 L 1179.441406 1179.441406 L 320.691406 1179.441406 Z M 320.691406 320.691406 " clip-rule="nonzero"/></clipPath></defs><g clip-path="url(#8e5f87a2c8)"><path fill="#737373" d="M 1182.582031 751.636719 C 1182.582031 758.6875 1182.410156 765.738281 1182.0625 772.78125 C 1181.714844 779.824219 1181.199219 786.855469 1180.507812 793.875 C 1179.816406 800.894531 1178.953125 807.890625 1177.917969 814.867188 C 1176.882812 821.84375 1175.675781 828.792969 1174.300781 835.710938 C 1172.925781 842.625 1171.378906 849.503906 1169.667969 856.347656 C 1167.953125 863.1875 1166.074219 869.984375 1164.027344 876.734375 C 1161.976562 883.480469 1159.765625 890.175781 1157.390625 896.816406 C 1155.015625 903.457031 1152.476562 910.035156 1149.777344 916.550781 C 1147.078125 923.066406 1144.222656 929.511719 1141.207031 935.890625 C 1138.191406 942.265625 1135.019531 948.5625 1131.695312 954.78125 C 1128.371094 961.003906 1124.894531 967.136719 1121.269531 973.1875 C 1117.644531 979.234375 1113.871094 985.191406 1109.953125 991.054688 C 1106.035156 996.921875 1101.976562 1002.683594 1097.773438 1008.351562 C 1093.574219 1014.015625 1089.234375 1019.574219 1084.761719 1025.023438 C 1080.289062 1030.476562 1075.683594 1035.816406 1070.945312 1041.042969 C 1066.210938 1046.265625 1061.347656 1051.375 1056.359375 1056.359375 C 1051.375 1061.347656 1046.265625 1066.210938 1041.042969 1070.945312 C 1035.816406 1075.683594 1030.476562 1080.289062 1025.023438 1084.761719 C 1019.574219 1089.234375 1014.015625 1093.574219 1008.351562 1097.773438 C 1002.683594 1101.976562 996.921875 1106.035156 991.054688 1109.953125 C 985.191406 1113.871094 979.234375 1117.644531 973.1875 1121.269531 C 967.136719 1124.894531 961.003906 1128.371094 954.78125 1131.695312 C 948.5625 1135.019531 942.265625 1138.191406 935.890625 1141.207031 C 929.511719 1144.222656 923.066406 1147.078125 916.550781 1149.777344 C 910.035156 1152.476562 903.457031 1155.015625 896.816406 1157.390625 C 890.175781 1159.765625 883.480469 1161.976562 876.734375 1164.027344 C 869.984375 1166.074219 863.1875 1167.953125 856.347656 1169.667969 C 849.503906 1171.378906 842.625 1172.925781 835.710938 1174.300781 C 828.792969 1175.675781 821.84375 1176.882812 814.867188 1177.917969 C 807.890625 1178.953125 800.894531 1179.816406 793.875 1180.507812 C 786.855469 1181.199219 779.824219 1181.714844 772.78125 1182.0625 C 765.738281 1182.410156 758.6875 1182.582031 751.636719 1182.582031 C 744.582031 1182.582031 737.535156 1182.410156 730.488281 1182.0625 C 723.445312 1181.714844 716.414062 1181.199219 709.394531 1180.507812 C 702.375 1179.816406 695.378906 1178.953125 688.402344 1177.917969 C 681.425781 1176.882812 674.480469 1175.675781 667.5625 1174.300781 C 660.644531 1172.925781 653.765625 1171.378906 646.925781 1169.667969 C 640.082031 1167.953125 633.289062 1166.074219 626.539062 1164.027344 C 619.789062 1161.976562 613.09375 1159.765625 606.453125 1157.390625 C 599.8125 1155.015625 593.234375 1152.476562 586.71875 1149.777344 C 580.203125 1147.078125 573.757812 1144.222656 567.382812 1141.207031 C 561.007812 1138.191406 554.710938 1135.019531 548.488281 1131.695312 C 542.269531 1128.371094 536.132812 1124.894531 530.085938 1121.269531 C 524.035156 1117.644531 518.078125 1113.871094 512.214844 1109.953125 C 506.351562 1106.035156 500.585938 1101.976562 494.921875 1097.773438 C 489.257812 1093.574219 483.699219 1089.234375 478.246094 1084.761719 C 472.792969 1080.289062 467.457031 1075.683594 462.230469 1070.945312 C 457.003906 1066.210938 451.898438 1061.347656 446.910156 1056.359375 C 441.921875 1051.375 437.0625 1046.265625 432.324219 1041.042969 C 427.589844 1035.816406 422.984375 1030.476562 418.511719 1025.023438 C 414.035156 1019.574219 409.699219 1014.015625 405.496094 1008.351562 C 401.296875 1002.683594 397.234375 996.921875 393.316406 991.054688 C 389.398438 985.191406 385.625 979.234375 382 973.1875 C 378.375 967.136719 374.898438 961.003906 371.574219 954.78125 C 368.25 948.5625 365.082031 942.265625 362.066406 935.890625 C 359.050781 929.511719 356.191406 923.066406 353.492188 916.550781 C 350.792969 910.035156 348.257812 903.457031 345.882812 896.816406 C 343.503906 890.175781 341.292969 883.480469 339.246094 876.734375 C 337.199219 869.984375 335.316406 863.1875 333.605469 856.347656 C 331.890625 849.503906 330.347656 842.625 328.96875 835.710938 C 327.59375 828.792969 326.390625 821.84375 325.355469 814.867188 C 324.320312 807.890625 323.457031 800.894531 322.765625 793.875 C 322.074219 786.855469 321.554688 779.824219 321.207031 772.78125 C 320.863281 765.738281 320.691406 758.6875 320.691406 751.636719 C 320.691406 744.582031 320.863281 737.535156 321.207031 730.488281 C 321.554688 723.445312 322.074219 716.414062 322.765625 709.394531 C 323.457031 702.375 324.320312 695.378906 325.355469 688.402344 C 326.390625 681.425781 327.59375 674.480469 328.96875 667.5625 C 330.347656 660.644531 331.890625 653.765625 333.605469 646.925781 C 335.316406 640.082031 337.199219 633.289062 339.246094 626.539062 C 341.292969 619.789062 343.503906 613.09375 345.882812 606.453125 C 348.257812 599.8125 350.792969 593.234375 353.492188 586.71875 C 356.191406 580.203125 359.050781 573.757812 362.066406 567.382812 C 365.082031 561.007812 368.25 554.710938 371.574219 548.488281 C 374.898438 542.269531 378.375 536.132812 382 530.085938 C 385.625 524.035156 389.398438 518.078125 393.316406 512.214844 C 397.234375 506.351562 401.296875 500.585938 405.496094 494.921875 C 409.699219 489.257812 414.035156 483.699219 418.511719 478.246094 C 422.984375 472.792969 427.589844 467.457031 432.324219 462.230469 C 437.0625 457.003906 441.921875 451.898438 446.910156 446.910156 C 451.898438 441.921875 457.003906 437.0625 462.230469 432.324219 C 467.457031 427.589844 472.792969 422.984375 478.246094 418.511719 C 483.699219 414.035156 489.257812 409.699219 494.921875 405.496094 C 500.585938 401.296875 506.351562 397.234375 512.214844 393.316406 C 518.078125 389.398438 524.035156 385.625 530.085938 382 C 536.132812 378.375 542.269531 374.898438 548.488281 371.574219 C 554.710938 368.25 561.007812 365.082031 567.382812 362.066406 C 573.757812 359.050781 580.203125 356.191406 586.71875 353.492188 C 593.234375 350.792969 599.8125 348.257812 606.453125 345.882812 C 613.09375 343.503906 619.789062 341.292969 626.539062 339.246094 C 633.289062 337.199219 640.082031 335.316406 646.925781 333.605469 C 653.765625 331.890625 660.644531 330.347656 667.5625 328.96875 C 674.480469 327.59375 681.425781 326.390625 688.402344 325.355469 C 695.378906 324.320312 702.375 323.457031 709.394531 322.765625 C 716.414062 322.074219 723.445312 321.554688 730.492188 321.207031 C 737.535156 320.863281 744.582031 320.691406 751.636719 320.691406 C 758.6875 320.691406 765.738281 320.863281 772.78125 321.207031 C 779.824219 321.554688 786.855469 322.074219 793.875 322.765625 C 800.894531 323.457031 807.890625 324.320312 814.867188 325.355469 C 821.84375 326.390625 828.792969 327.59375 835.710938 328.96875 C 842.625 330.347656 849.503906 331.890625 856.347656 333.605469 C 863.1875 335.316406 869.984375 337.199219 876.734375 339.246094 C 883.480469 341.292969 890.175781 343.503906 896.816406 345.882812 C 903.457031 348.257812 910.035156 350.792969 916.550781 353.492188 C 923.066406 356.191406 929.511719 359.050781 935.890625 362.066406 C 942.265625 365.082031 948.5625 368.25 954.78125 371.574219 C 961.003906 374.898438 967.136719 378.375 973.1875 382 C 979.234375 385.625 985.191406 389.398438 991.054688 393.316406 C 996.921875 397.234375 1002.683594 401.296875 1008.351562 405.496094 C 1014.015625 409.699219 1019.574219 414.035156 1025.023438 418.511719 C 1030.476562 422.984375 1035.816406 427.589844 1041.042969 432.324219 C 1046.265625 437.0625 1051.375 441.921875 1056.359375 446.910156 C 1061.347656 451.898438 1066.210938 457.003906 1070.945312 462.230469 C 1075.683594 467.457031 1080.289062 472.792969 1084.761719 478.246094 C 1089.234375 483.699219 1093.574219 489.257812 1097.773438 494.921875 C 1101.976562 500.585938 1106.035156 506.351562 1109.953125 512.214844 C 1113.871094 518.078125 1117.644531 524.035156 1121.269531 530.085938 C 1124.894531 536.132812 1128.371094 542.269531 1131.695312 548.488281 C 1135.019531 554.710938 1138.191406 561.007812 1141.207031 567.382812 C 1144.222656 573.757812 1147.078125 580.203125 1149.777344 586.71875 C 1152.476562 593.234375 1155.015625 599.8125 1157.390625 606.453125 C 1159.765625 613.09375 1161.976562 619.789062 1164.027344 626.539062 C 1166.074219 633.289062 1167.953125 640.082031 1169.667969 646.925781 C 1171.378906 653.765625 1172.925781 660.644531 1174.300781 667.5625 C 1175.675781 674.480469 1176.882812 681.425781 1177.917969 688.402344 C 1178.953125 695.378906 1179.816406 702.375 1180.507812 709.394531 C 1181.199219 716.414062 1181.714844 723.445312 1182.0625 730.488281 C 1182.410156 737.535156 1182.582031 744.582031 1182.582031 751.636719 Z M 1182.582031 751.636719 " fill-opacity="1" fill-rule="nonzero"/></g><path fill="#ffffff" d="M 916.402344 989.476562 L 586.949219 989.476562 C 584.226562 989.476562 581.996094 987.25 581.996094 984.523438 L 581.996094 570.539062 C 581.996094 567.8125 584.226562 565.585938 586.949219 565.585938 L 652.902344 565.585938 L 652.902344 586.949219 L 608.003906 586.949219 C 605.28125 586.949219 603.050781 589.179688 603.050781 591.902344 L 603.050781 963.46875 C 603.050781 966.191406 605.28125 968.421875 608.003906 968.421875 L 848.902344 968.421875 C 849.082031 968.417969 849.253906 968.414062 849.4375 968.394531 C 850.75 968.253906 851.957031 967.597656 852.804688 966.535156 L 899.25 907.703125 C 900.03125 906.707031 900.304688 905.660156 900.304688 904.476562 L 900.304688 591.902344 C 900.304688 589.179688 898.074219 586.949219 895.347656 586.949219 L 850.449219 586.949219 L 850.449219 565.582031 L 916.402344 565.585938 C 919.128906 565.585938 921.359375 567.8125 921.359375 570.539062 L 921.359375 984.523438 C 921.359375 987.25 919.128906 989.476562 916.402344 989.476562 Z M 695.015625 856.953125 L 650.734375 856.953125 C 646.214844 856.953125 642.683594 853.269531 642.683594 848.59375 L 642.683594 803.695312 C 642.683594 799.019531 646.214844 795.335938 650.734375 795.335938 L 695.015625 795.335938 C 699.535156 795.335938 703.066406 799.019531 703.066406 803.695312 L 703.066406 848.59375 C 703.066406 853.269531 699.535156 856.953125 695.015625 856.953125 Z M 652.59375 847.042969 L 693.15625 847.042969 L 693.15625 805.242188 L 652.59375 805.242188 Z M 695.015625 932.503906 L 650.734375 932.503906 C 646.214844 932.503906 642.683594 928.820312 642.683594 924.144531 L 642.683594 879.246094 C 642.683594 874.570312 646.214844 870.886719 650.734375 870.886719 L 695.015625 870.886719 C 699.535156 870.886719 703.066406 874.570312 703.066406 879.246094 L 703.066406 924.144531 C 703.066406 928.820312 699.535156 932.503906 695.015625 932.503906 Z M 652.59375 922.597656 L 693.15625 922.597656 L 693.15625 880.796875 L 652.59375 880.796875 Z M 695.015625 706.160156 L 650.734375 706.160156 C 646.214844 706.160156 642.683594 702.476562 642.683594 697.800781 L 642.683594 652.902344 C 642.683594 648.320312 646.152344 644.851562 650.734375 644.851562 L 673.960938 644.851562 C 676.683594 644.851562 678.914062 647.082031 678.914062 649.804688 C 678.914062 652.53125 676.683594 654.761719 673.960938 654.761719 L 652.59375 654.761719 L 652.59375 696.25 L 693.15625 696.25 L 693.15625 682.316406 C 693.15625 679.59375 695.386719 677.363281 698.109375 677.363281 C 700.835938 677.363281 703.066406 679.59375 703.066406 682.316406 L 703.066406 697.800781 C 703.0625 702.476562 699.535156 706.160156 695.015625 706.160156 Z M 675.199219 687.273438 C 673.929688 687.273438 672.660156 686.777344 671.699219 685.816406 L 661.480469 675.597656 C 659.5625 673.679688 659.5625 670.519531 661.480469 668.601562 C 663.398438 666.679688 666.558594 666.679688 668.476562 668.601562 L 675.199219 675.320312 L 706.6875 643.828125 C 708.605469 641.910156 711.765625 641.910156 713.6875 643.828125 C 715.605469 645.75 715.605469 648.90625 713.6875 650.828125 L 678.695312 685.816406 C 677.734375 686.777344 676.46875 687.273438 675.199219 687.273438 Z M 695.015625 782.019531 L 650.734375 782.019531 C 646.214844 782.019531 642.683594 778.335938 642.683594 773.660156 L 642.683594 728.761719 C 642.683594 724.085938 646.214844 720.402344 650.734375 720.402344 L 673.960938 720.402344 C 676.683594 720.402344 678.914062 722.632812 678.914062 725.355469 C 678.914062 728.082031 676.683594 730.3125 673.960938 730.3125 L 652.59375 730.3125 L 652.59375 772.113281 L 693.15625 772.113281 L 693.15625 758.179688 C 693.15625 755.453125 695.386719 753.222656 698.109375 753.222656 C 700.835938 753.222656 703.066406 755.453125 703.066406 758.179688 L 703.066406 773.660156 C 703.0625 778.335938 699.535156 782.019531 695.015625 782.019531 Z M 675.199219 763.132812 C 673.929688 763.132812 672.660156 762.636719 671.699219 761.679688 L 661.480469 751.460938 C 659.5625 749.539062 659.5625 746.382812 661.480469 744.460938 C 663.398438 742.542969 666.558594 742.542969 668.476562 744.460938 L 675.199219 751.179688 L 706.6875 719.691406 C 708.605469 717.769531 711.765625 717.769531 713.6875 719.691406 C 715.605469 721.609375 715.605469 724.769531 713.6875 726.6875 L 678.695312 761.675781 C 677.734375 762.636719 676.46875 763.132812 675.199219 763.132812 Z M 855.714844 654.761719 L 738.671875 654.761719 C 735.949219 654.761719 733.71875 652.53125 733.71875 649.804688 C 733.71875 647.082031 735.949219 644.851562 738.671875 644.851562 L 855.714844 644.851562 C 858.441406 644.851562 860.671875 647.082031 860.671875 649.804688 C 860.671875 652.53125 858.441406 654.761719 855.714844 654.761719 Z M 797.195312 680.460938 L 738.671875 680.460938 C 735.949219 680.460938 733.71875 678.230469 733.71875 675.503906 C 733.71875 672.78125 735.949219 670.550781 738.671875 670.550781 L 797.195312 670.550781 C 799.917969 670.550781 802.148438 672.78125 802.148438 675.507812 C 802.148438 678.230469 799.917969 680.460938 797.195312 680.460938 Z M 855.714844 729.074219 L 738.671875 729.074219 C 735.949219 729.074219 733.71875 726.84375 733.71875 724.117188 C 733.71875 721.394531 735.949219 719.164062 738.671875 719.164062 L 855.714844 719.164062 C 858.441406 719.164062 860.671875 721.394531 860.671875 724.117188 C 860.671875 726.84375 858.441406 729.074219 855.714844 729.074219 Z M 797.195312 755.082031 L 738.671875 755.082031 C 735.949219 755.082031 733.71875 752.851562 733.71875 750.128906 C 733.71875 747.402344 735.949219 745.171875 738.671875 745.171875 L 797.195312 745.175781 C 799.917969 745.175781 802.148438 747.402344 802.148438 750.128906 C 802.148438 752.851562 799.917969 755.082031 797.195312 755.082031 Z M 855.714844 805.242188 L 738.671875 805.242188 C 735.949219 805.242188 733.71875 803.015625 733.71875 800.289062 C 733.71875 797.5625 735.949219 795.335938 738.671875 795.335938 L 855.714844 795.335938 C 858.441406 795.335938 860.671875 797.5625 860.671875 800.289062 C 860.671875 803.015625 858.441406 805.242188 855.714844 805.242188 Z M 797.195312 831.253906 L 738.671875 831.253906 C 735.949219 831.253906 733.71875 829.023438 733.71875 826.296875 C 733.71875 823.574219 735.949219 821.34375 738.671875 821.34375 L 797.195312 821.34375 C 799.917969 821.34375 802.148438 823.574219 802.148438 826.296875 C 802.148438 829.023438 799.917969 831.253906 797.195312 831.253906 Z M 855.714844 880.792969 L 738.671875 880.792969 C 735.949219 880.792969 733.71875 878.566406 733.71875 875.839844 C 733.71875 873.117188 735.949219 870.886719 738.671875 870.886719 L 855.714844 870.886719 C 858.441406 870.886719 860.671875 873.117188 860.671875 875.839844 C 860.671875 878.566406 858.441406 880.792969 855.714844 880.792969 Z M 797.195312 906.496094 L 738.671875 906.496094 C 735.949219 906.496094 733.71875 904.265625 733.71875 901.539062 C 733.71875 898.816406 735.949219 896.585938 738.671875 896.585938 L 797.195312 896.585938 C 799.917969 896.585938 802.148438 898.816406 802.148438 901.539062 C 802.148438 904.265625 799.917969 906.496094 797.195312 906.496094 Z M 843.949219 958.511719 L 843.949219 904.636719 C 843.949219 901.910156 846.179688 899.683594 848.902344 899.683594 L 890.394531 899.683594 L 890.394531 596.855469 L 850.453125 596.855469 L 850.453125 603.980469 C 850.453125 616.167969 840.347656 626.273438 828.160156 626.273438 L 675.199219 626.273438 C 663.011719 626.273438 652.90625 616.167969 652.90625 603.980469 L 652.90625 596.859375 L 612.960938 596.855469 L 612.960938 958.511719 Z M 885.113281 909.589844 L 853.859375 909.589844 L 853.859375 949.179688 Z M 885.113281 909.589844 " fill-opacity="1" fill-rule="evenodd"/><path fill="#ffffff" d="M 828.15625 616.367188 L 675.199219 616.367188 C 668.480469 616.367188 662.8125 610.699219 662.8125 603.980469 L 662.8125 558.464844 C 662.8125 551.746094 668.480469 546.078125 675.199219 546.078125 L 714.863281 546.078125 C 715.945312 538.089844 719.601562 530.660156 725.453125 524.804688 C 732.511719 517.746094 741.800781 513.875 751.679688 513.875 C 761.523438 513.875 770.84375 517.746094 777.90625 524.804688 C 783.757812 530.660156 787.441406 538.089844 788.496094 546.078125 L 828.160156 546.078125 C 834.878906 546.078125 840.542969 551.746094 840.542969 558.464844 L 840.542969 603.980469 C 840.542969 610.699219 834.878906 616.367188 828.160156 616.367188 Z M 751.675781 573.015625 C 739.355469 573.015625 729.695312 563.355469 729.695312 551.03125 C 729.695312 538.710938 739.355469 529.046875 751.675781 529.046875 C 764 529.046875 773.660156 538.710938 773.660156 551.03125 C 773.660156 563.355469 764 573.015625 751.675781 573.015625 Z M 751.675781 538.957031 C 744.804688 538.957031 739.601562 544.160156 739.601562 551.03125 C 739.601562 557.90625 744.804688 563.109375 751.675781 563.109375 C 758.550781 563.109375 763.753906 557.90625 763.753906 551.03125 C 763.753906 544.160156 758.550781 538.957031 751.675781 538.957031 Z M 751.675781 538.957031 " fill-opacity="1" fill-rule="evenodd"/></svg>